<svg xmlns="http://www.w3.org/2000/svg" width="30" height="40" viewBox="0 0 30 40"><defs><style>.a,.e{fill:#fff;}.a,.b,.c,.d{fill-rule:evenodd;}.b{fill:#a4693a;}.c{fill:#c77f49;}.d{fill:#3c5f36;}</style></defs><path class="a" d="M6.02,23.115h0c0-.1-.1-.1-.1-.2a.218.218,0,0,0-.2-.2c-.1-.1-.2,0-.2-.1,0,0-.1,0-.1-.2h-.3a1.568,1.568,0,0,0-.4.1c-.1,0-.1.1-.2.1s-.2.1-.3.1c0,0-.2.307-.3.307s0,0-.5.2a1.468,1.468,0,0,0-.4.2h.906c.3,0,.906-.1,1.107-.1s.3.1.4,0h.6c-.1-.2,0-.2,0-.2Z" transform="translate(0.02 0.49)"/><path class="b" d="M5.216,23.2h-.4c-.2,0-.7.1-1.107.1H2.8c0,.1.1.2.1.307a2.63,2.63,0,0,1,.2.715v.307c0,.1.1.2.2.307a2.846,2.846,0,0,0,.5.92c.2.307.5.92.7,1.226h.1c.1,0,.1,0,0-.1a.1.1,0,0,0,.1-.1.1.1,0,0,0,.1-.1l.1-.2a.319.319,0,0,0,.1.2c-.1,0,0,0,0,.1v.2h0s.3,0,.4-.1.1-.1,0-.2c.1,0,.4-.1.3-.2.1-.1,0-.1-.1-.1.3-.1.3-.1.3-.2.1-.1-.1-.2-.1-.2.2,0,.2,0,.1-.1.2.1.2-.1.1-.2.1,0,.1-.1,0-.2.2,0,.3,0,.1-.1a.1.1,0,0,0,.1-.1c.1-.1,0-.1,0-.1.1,0,.1-.2,0-.2a.51.51,0,0,0,.1-.307.51.51,0,0,0,.1.307.1.1,0,0,0,.1.1c-.1.1,0,.1.1.2,0,.1-.1.1.1.1-.1.1-.1.2,0,.1-.1,0,0,.1.1.1-.1.1-.1.2.1.2-.1,0-.1.2.1.2-.1,0-.2.2.1.307,0-.2.1-1.942.1-2.248v-.613h-.2c-.1,0-.2.1-.4,0s-.3,0-.4,0h-.4c-.2.1-.3,0-.4-.1s0-.2.1-.2Z" transform="translate(0.019 0.507)"/><path class="c" d="M26.979,23.394v-.1a.779.779,0,0,1,.2-.409c.2-.2.3-.511.5-.613s.2-.307.3-.715a2.867,2.867,0,0,1,.1-.817,4.062,4.062,0,0,1,.2-.613,2.63,2.63,0,0,0,.2-.715,5.021,5.021,0,0,1-.3-.715,2.182,2.182,0,0,1,.1-1.328,1.465,1.465,0,0,1,.6-.715.622.622,0,0,0,.1-.409c-.1-.409.1-.409.1-.613a1.386,1.386,0,0,0,.1-.511c0-.1,0-.307-.1-.307,0-.2-.1-.409,0-.511a.622.622,0,0,0,.1-.409c0-.1.1-.1.1-.2s.1-.307.1-.409a3.663,3.663,0,0,0,.1-.613,2.06,2.06,0,0,0,0-.817.451.451,0,0,0-.1-.307v-.511c0-.1.4-.613.4-.715V9.8c0-.1-.1-.409-.1-.511V7.657c0-.1-.1-.1-.4-.2a7.114,7.114,0,0,1-.906-.715c-.1,0-.5-.1-.7-.1s-.7.1-.906.1-.5-.1-.6-.1-.4-.1-.5-.1h-.906a.763.763,0,0,1-.5-.2c-.1-.1-.1,0-.3-.2q.151,0,0,0a2.9,2.9,0,0,1-.906-.2,1.433,1.433,0,0,1-.4-.817,1.018,1.018,0,0,1,.2-.92c.3-.1.6-.409.805-.409.1,0-.1-.409-.2-.715,0-.1-.2-.1-.7-.613a4.26,4.26,0,0,1-.6-.817c-.1-.1,0-.2-.1-.2a6.56,6.56,0,0,1-1.107-.1c-.6-.1-1.007-.307-1.208-.307a2.532,2.532,0,0,0-.7-.2,1.069,1.069,0,0,0-.6-.2c-.2-.1-.3-.307-.5-.307a9.934,9.934,0,0,1-1.107.409c-.5.1-.7-.1-1.007-.1S15.2.5,14.9.5c-.4,0-1.409.2-1.611.2s-.4.1-.7.1a6.118,6.118,0,0,0-1.107.307h-.4a4.3,4.3,0,0,0-.5.1c-.1,0-1.107.409-1.309.409a3.074,3.074,0,0,0-.805.2,1.246,1.246,0,0,1-.3.2,2.747,2.747,0,0,1-.7.409,2.022,2.022,0,0,1-.5.1.583.583,0,0,0-.4.1c0,.2-.1.613,0,.715a4.52,4.52,0,0,1,.6,1.226c0,.511-.1.817-.1,1.022a.379.379,0,0,1-.1.307,5.6,5.6,0,0,1-.7.1,1.843,1.843,0,0,1-1.107-.2c-.7-.1-.7-.2-.805-.307s-.2-.1-.3-.2-.3-.1-.4-.2-.6.2-1.309.2c-.1,0-.3.409-.7.613s-.5.307-.6.307c-.3.307-.7.307-.7.409.1.2-.1.307,0,.715A5.1,5.1,0,0,1,.2,8.781a.455.455,0,0,0,.3.409A2.24,2.24,0,0,1,.8,9.7a5.95,5.95,0,0,1-.1,1.226,2.8,2.8,0,0,0-.1,1.226c0,.1.2.409.2.511a3.032,3.032,0,0,1,.3,1.022,5.843,5.843,0,0,1-.1.715.779.779,0,0,0,.2.409c.1.1.3.613.4.715a1.031,1.031,0,0,1,.1.409v.409a11.268,11.268,0,0,0-.1,1.328V18.9l.3.307a4.161,4.161,0,0,0,.5.92,2.141,2.141,0,0,0,.2.613c0,.2.1.613.1.715s.2,1.022.2,1.124c0,.2.1.613.1.817s0,.613.1.613h0l.4-.2c.4-.307.3-.307.4-.307.2,0,.3-.307.4-.307s.2-.1.3-.1a.35.35,0,0,0,.2-.1.991.991,0,0,1,.4-.1l.4-.1c.2,0,4.329-1.533,5.134-1.839s.1.2,1.107-.1c1.007-.409,1.611-.715,1.611-.715.3-.1,1.51-.715,1.51-.715a2.022,2.022,0,0,1,.5-.1h1.611c.2,0,.2-.2.3-.2a.35.35,0,0,0,.2-.1c.1-.2.2-.1.3-.2.1-.2.2-.1.5-.307h.4c.1,0,.5-.409.6-.409.1-.1.1-.2.2-.2.2.1.3,0,.4.1.2.2.6.409.6.511.1.2.4.2.4.511,0,.1.1.1.1.307,0,.1.4,0,.5.1s.5.511.6.511c.1.1.3.2.4.307a6.111,6.111,0,0,1,1.007.715c.1.1.3.1.4.2a4.4,4.4,0,0,1,1.007.817c.1.1.7.613.7.715s.3.307.3.409.4.409.5.511c.2-.2.1-.307.4-.2Z" transform="translate(0.001 0.007)"/><path class="b" d="M25.311,26.3a1.473,1.473,0,0,0,.2-.307c.2-.2.2-.409.5-.613a1.031,1.031,0,0,0,.1-.409.8.8,0,0,1,.1-.307,1.5,1.5,0,0,1,.5-.613.622.622,0,0,0,.1-.409,1.126,1.126,0,0,1,.1-.511h0l-.3-.307c-.1-.1-.5-.409-.5-.511s-.3-.2-.3-.409c0-.1-.6-.511-.7-.715s-.805-.613-1.007-.817c-.1-.1-.3,0-.4-.2-.2-.307-.906-.613-1.007-.715-.1,0-.3-.2-.4-.307-.1,0-.5-.409-.6-.511a1.329,1.329,0,0,0-.5-.1c0-.2-.1-.2-.1-.307,0-.307-.3-.307-.4-.511a7.439,7.439,0,0,1-.6-.511c-.1-.1-.2,0-.4-.1a.218.218,0,0,0-.2.2,2.1,2.1,0,0,1-.6.409h-.4c-.3.2-.4.2-.5.307s-.2.1-.3.2c0,.1-.1.1-.2.1s-.1.2-.3.2H15.546a2.022,2.022,0,0,0-.5.1s-1.208.613-1.51.715l-.1.1c0,.1-.1.307-.2.307s-.2,0-.2.1a.1.1,0,0,0,.1.1s.1.2,0,.2c-.1.1-.1.2-.2.2,0,.1-.2.2-.2.2,0,.1.1.1.1.2,0,.2-.1.2-.1.307s.1.1,0,.2a.319.319,0,0,0-.1.2c0,.1-.1,0-.2.1l-.1.1c0,.1,0,.2-.1.2h-.4c-.1,0,0,.1,0,.2h-.2a.1.1,0,0,0-.1.1.1.1,0,0,1-.1.1l-.1.1v.2c0,.1-.1.1-.2.1s-.1,0-.1.1v.1c0,.1-.2.1-.2.1a1.476,1.476,0,0,1-.6.1c-.1,0-.4,0-.4-.1,0-.2-.2-.2-.2-.307-.2.409-.4.409-.4.307s-.5-.1-.5,0v1.942A5.912,5.912,0,0,0,8.8,26.3c0,.409.1.511.2.613h.1s.2,0,.1-.1c.1,0,.1-.1-.1-.1.2,0,.1-.1.1-.1.1,0,.2-.1.1-.2.1,0,.1-.1,0-.1.1,0,.1,0,.1-.1.1.1.2,0,.1-.1.1,0,.1-.1-.1-.1.1,0,.2,0,.1-.1.1.1.2,0,.1-.1.1,0,.1-.2.1-.2,0,.1,0,.307.1.2-.1.1,0,.1.1.1-.2,0-.2.1,0,.2-.1.1.1,0,.2.1-.1,0-.2,0-.1.1-.1.1,0,.1.2.1-.2,0-.2.1-.1.2h.2c.1,0,.1,0,.1-.1,0,0,.1-.1-.1-.1h.2c.2,0,.2-.1-.1-.2.1,0,.4,0,.2-.1.1,0,0-.1-.1-.1.1,0,.1-.1,0-.2.1,0,.2,0,.1-.1.1,0,.1,0,.1-.1.2,0,.1-.1,0-.1,0,0,.2-.1,0-.1h.2c.1,0,.2-.1,0-.1,0,0,.1-.1,0-.1.1,0,.2-.2.2-.2.1,0,.1-.2.1-.307a.358.358,0,0,0,.1.2c-.1.1,0,.1.1.2-.1,0,.1.1.1.1-.1.1-.1.2.2.307-.1,0-.1.1,0,.1h-.2c-.1,0-.1.1.1.1a.35.35,0,0,0,.2.1c-.1.1,0,.1.1.1,0,0-.1.1,0,.1-.1.1-.2.2.2.2-.1.1,0,.1.1.1-.3,0-.2.2,0,.2-.1,0,0,.1.1.2-.1.1.2.1.1,0,.2,0,.2-.1.1-.1.2,0,.1-.307,0-.307.1,0,.2-.1.1-.2.1,0,.3-.1-.1-.1.3,0,.2-.1.1-.2,0,0,.4,0,.2-.1.1,0,0-.1-.1-.1.1,0,.2-.1.1-.2a.1.1,0,0,0,.1-.1s.3,0,.2-.1c.1,0,0-.1,0-.1.1,0,0-.2,0-.2.6,0,.1-.2,0-.307.1,0,.3,0,.2-.1.3.1.1-.2,0-.2l.1-.1c.1.1.2,0,.1-.1.1,0,0-.1,0-.1.1,0,.1-.307.1-.307s.1.307.2.307c-.1,0-.1.2,0,.307,0,.1.1.1.2.1-.2,0-.2.1,0,.2-.1.1,0,.1.1.1-.1,0-.1.1,0,.2-.1,0-.1.1-.1.2-.1,0,0,.1.2.2-.2,0-.3.1,0,.2-.1,0,0,.1.1.1-.2.1-.2.2.1.2-.1,0,0,.1.1.1-.5,0-.2.307,0,.2-.2.1.1.1.2.1-.2,0-.4,0-.3.1-.1,0-.1.2.3.1-.1,0,.1.2.1.2-.5.1-.3.1,0,.2-.1,0-.1.1.1.1-.2,0-.3.1-.2.2s.1.1,1.611.2a5.5,5.5,0,0,1,1.611.2c.3,0,.1-.2,0-.2.5.1.2-.1.2-.2.1,0,.2,0,.1-.1.3,0,.2-.1.1-.2.3-.1.2-.2.1-.2.1,0,.1,0,.1-.1.2.1.2,0,.1-.1.1,0,.2-.1.1-.2a.1.1,0,0,0,.1-.1c.4,0-.1-.2,0-.1.2,0,.3-.2.1-.307.1,0,.2-.1.1-.2.1,0,.1-.1,0-.2.2,0,.2-.2.1-.2.2,0,.2-.409.2-.409s0,.307.2.307c-.1.1.1.2.2.2-.2,0-.2.1-.1.1-.1,0,0,.2.1.2-.2,0,0,.1,0,.2-.1,0-.1.1,0,.1a.143.143,0,0,0,0,.2h.2c.1-.1,0-.2-.1-.2.2,0,.2-.2.1-.2.2,0,.1-.2.1-.2.1,0,.1-.2.1-.307a.379.379,0,0,0,.1.307c-.1.1,0,.2.1.2-.1,0,0,.1.1.2-.2.1.1.2.1.2-.1.1.1.2.1.2a.358.358,0,0,0-.1.2c0,.1.2.1.3,0s0-.2-.1-.2c.2,0,.1-.2,0-.2.2,0,.4-.1.2-.1,0,0,.2-.1,0-.1.2,0,.1-.2.1-.2s.2,0,.1-.1a.35.35,0,0,0,.2-.1.2.2,0,0,0,.2.2c-.1.1,0,.1.1.1-.2.1,0,.1.1.2-.1,0-.1.1,0,.2-.1,0,0,.1.1.1-.1.1-.1.2,0,.2,0-.2.3-.2.3-.2a.1.1,0,0,0,.1-.1.1.1,0,0,1-.1-.1c.2-.1.1-.2,0-.2.3,0,.2-.2.1-.2.1,0,.1,0,.1-.1.1,0,0-.1.1-.2,0,.1,0,.2.1.2v.1c-.2,0,0,.1,0,.1-.1.1,0,.1,0,.1-.1.1,0,.1,0,.1-.1.1,0,.2.1.1.2-.1,0-.2,0-.2.1,0,.2,0,.1-.1.2.1.3-.1.2-.2.1,0,.1-.2,0-.2.2,0,.3,0,.2-.2a.1.1,0,1,1,.2,0c-.1.1,0,.1,0,.1a.1.1,0,0,0,.1.1c-.1,0,0,.1.1.1-.2,0-.2.1-.1.1,0,.1,0,.1.1.1-.1.1.1.1.1.1-.2,0-.2.2,0,.2,0,.1.2,0,.2.1.2.2.2.409.5.307-.1.2.1.1.1.1.2.1.2-.1.1-.1.1,0,.1-.1-.1-.1.1,0,.1,0,.1-.1.1,0,.2,0,.1-.1a.1.1,0,1,1,.2,0c0,.1,0,.1.2.1,0,.1,0,.1.1.1a.1.1,0,0,0,.1.1Z" transform="translate(0.058 0.374)"/><path class="a" d="M16.223,19.335a1.416,1.416,0,0,0-.6.2,10.591,10.591,0,0,1-1.309.817.616.616,0,0,0-.4.511c0,.1.3,0,.6,0,.3-.1.4-.1.4-.2s.2-.2.4-.307c.1-.1,0-.2.1-.307s.4-.409.5-.409C15.921,19.437,16.223,19.335,16.223,19.335Zm1.007,0c-.1,0-.5.307-.6.307-.1.1-.2.1-.2.2l.2.1c.1,0,.1,0,.2-.1s.3-.2.3-.307C17.23,19.437,17.331,19.335,17.23,19.335Zm-.906.817c-.1,0-.1,0-.2.1l-.1.1s.1.1.1,0l.2-.2Zm5.034.307c.1.307.4.307.7.511.1,0-.6-.511-.805-.715s-.4-.511-.5-.511S21.257,20.357,21.358,20.459Zm.2-.409c0,.1.3.409.3.409.1.1.2.2.2.307s.1,0,.1,0-.2-.2-.1-.2.1.2.2.2c.1.1.2.2.2.307s.1.2.2.307a.319.319,0,0,1,.1.2v-.2c0-.1-.2-.2-.3-.307s0-.2-.1-.307-.3-.511-.4-.613-.1.1-.2.1c0,.1-.2-.2-.2-.307a1.473,1.473,0,0,1-.2-.307C21.458,19.642,21.559,19.948,21.559,20.05Zm2.114,1.226s.2.2.2.307c.1,0,.1.1.2,0,0-.1-.1-.1-.2-.2s0-.2-.2-.2C23.572,21.072,23.673,21.174,23.673,21.276Zm-3.926-1.839v.1a.1.1,0,0,0-.1.1s0,.2.1.2h.5c0-.1,0-.1-.1-.2-.1,0-.1-.1-.1-.2s-.2-.1-.3-.1S19.646,19.437,19.747,19.437Zm-2.215.2a1.346,1.346,0,0,0-.6.511.143.143,0,0,0,0,.2h.1l.1-.2c.1,0,.2-.2.2-.307Zm9.262,3.576h-.2a1.287,1.287,0,0,0-.805-.2c-.1,0-.4-.409-.906-.613-.1,0-1.007-.613-1.107-.613-.4,0-.5-.2-.4-.1,0,.1.2.1.2.409a1.04,1.04,0,0,0,.1.307,2.732,2.732,0,0,1-1.51-.715,4.638,4.638,0,0,0-.7-.92,2.2,2.2,0,0,1-.5-.409.1.1,0,0,0-.1-.1.366.366,0,0,1-.3-.1c0-.1-.1,0-.2.1,0,0-.2,0-.1.1,0,.1-.1.1,0,.1.2.2.1.409.2.409a.358.358,0,0,1,.1.2c0,.2.1.2.1.307s.1.2,0,.2-.2-.1-.3-.2-.2-.1-.2-.2a1.265,1.265,0,0,1-.2-.307c0-.1.2.307.2.511s.1.307.2.511c.1.1,0,.307,0,.307s-.3-.1-.3-.2c-.1-.2-.4-.2-.6-.613-.1-.2,0-.511,0-.613s-.2-.2-.3-.409,0-.613,0-.817v-.307c-.1,0-.4.307-.805.511a.218.218,0,0,0-.2.2.652.652,0,0,0-.5.511,1.59,1.59,0,0,0-.3.613c-.1.1,0,.2-.1.2l-.7.715c-.5.307-.5.2-.5.1s.4-.511.6-.92c.1-.2-.1,0-.2,0-.2-.1,0-.307,0-.307.1-.1,0-.1.1-.2s0-.2.1-.2c.1-.1,0-.1,0,0-.1.1-.4.2-.5.307s-.805.511-.7.307l.2-.2a.379.379,0,0,0,.1-.307v-.2c.4-.307-.1-.1-.1,0a4.264,4.264,0,0,1-.7.511c-.1.1-.4.2-.4.307s-.1.2-.1.1c-.1-.1-.2,0-.3.1a.138.138,0,0,1-.2,0h-.3c-.1,0-.7.409-.805.409h-.1a1.04,1.04,0,0,0,.1-.307c0-.1,0-.1-.1-.2a.218.218,0,0,1,.2-.2.218.218,0,0,1,.2-.2.143.143,0,0,0,0-.2.358.358,0,0,1-.1-.2c0-.1.1,0,.2-.1.1,0,.2-.2.2-.307l.1-.1c.3-.1,1.51-.715,1.51-.715a2.022,2.022,0,0,1,.5-.1H17.13c.2,0,.2-.2.3-.2a.35.35,0,0,0,.2-.1c.1-.2.2-.1.3-.2.1-.2.2-.1.5-.307h.4c.1,0,.5-.409.6-.409.1-.1.1-.2.2-.2.2.1.3,0,.4.1.2.2.6.409.6.511.1.2.4.2.4.511,0,.1.1.1.1.307,0,.1.4,0,.5.1s.5.511.6.511c.1.1.3.2.4.307a6.111,6.111,0,0,1,1.007.715c.1.1.3.1.4.2a4.4,4.4,0,0,1,1.007.817c.1.1.7.613.7.715s.3.307.3.409.4.409.5.511c.1-.409.1-.409.2-.2Z" transform="translate(0.085 0.387)"/><path class="d" d="M24.034,28.355a.1.1,0,0,1-.1.1c0,.1-.2.92-.2,1.124a.533.533,0,0,1-.2.409c-.1.1-.4.307-.4.511,0,.1,0,.613-.1.715s-.5.613-.7.817l-.4.409-.1.2a.467.467,0,0,1,0,.613,4.7,4.7,0,0,1-1.007,1.022c-.3.2-.6.409-.6.511-.1.1,0,.409-.1.409-.1.1-.4.307-.5.409s-.1.1-.1.2-.1.1-.1.307a2.846,2.846,0,0,1-.5.92c-.1.2-.3.2-.5.409-.4.2-.3.1-.906.715-.2.1-.5.511-.6.511-.1.1-.3.409-.5.613s-.3.307-1.107.409a5.6,5.6,0,0,0-.7-.1,1.492,1.492,0,0,1-.7-.307.759.759,0,0,0-.4-.2,1.547,1.547,0,0,0-.6-.307c-.1-.1-.2-.1-.3-.2l-.4-.409c-.3-.307-.906-.715-1.007-.817a2.24,2.24,0,0,1-.3-.511c-.1-.1-.2-.1-.2-.2v-.613c0-.1,0-.2-.3-.409s-.4-.2-.5-.307c-.3-.2-.805-.613-.805-.715s-.1-.409-.1-.511,0-.2-.3-.409c-.1,0-.1-.1-.1-.2a.35.35,0,0,0-.2-.1.358.358,0,0,1-.1-.2c-.1-.409-.2-.613-.4-.715l-.4-.409c-.1-.1-.3-.2-.3-.307-.1-.1-.1-.1-.1-.2a1.467,1.467,0,0,0-.2-.613,2.571,2.571,0,0,0-.5-.817,4.76,4.76,0,0,0-.5-.613.379.379,0,0,1-.1-.307c0-.1-.1-.2-.2-.409-.1-.1-.5-.511-.5-.613s-.1-.1-.2-.1-.2-.2-.2-.2c-.1,0-.1-.1-.1-.2v-.1h0a.1.1,0,0,0-.1-.1h.1c.1,0,.1,0,0-.1a.1.1,0,0,0,.1-.1.1.1,0,0,0,.1-.1l.1-.2a.319.319,0,0,0,.1.2c-.1,0,0,0,0,.1v.2h0s.3,0,.4-.1.1-.1,0-.2c.1,0,.4-.1.3-.2.1-.1,0-.1-.1-.1.3-.1.3-.1.3-.2.2-.1,0-.2,0-.2.2,0,.2,0,.1-.1.2.1.2-.1.1-.2.1,0,.1-.1,0-.2.2,0,.3,0,.1-.1a.1.1,0,0,0,.1-.1c.1-.1,0-.1,0-.1.1,0,.1-.2,0-.2a.51.51,0,0,0,.1-.307.51.51,0,0,0,.1.307.1.1,0,0,0,.1.1c-.1.1,0,.1.1.2,0,.1-.1.1.1.1-.1.1-.1.2,0,.1-.1,0,0,.1.1.1-.1.1-.1.2.1.2-.1,0-.1.2.1.2-.1,0-.2.2.1.307,0-.2.1-1.942.1-2.248v-.613h-.2c-.1,0-.2.1-.4,0s-.3,0-.4,0h-.4c-.2.1-.3,0-.4-.1s0-.2.1-.2c.3,0,.3-.1.3-.1.2-.2.1-.1,0-.2a.218.218,0,0,0-.2-.2c-.1-.1-.2,0-.2-.1,0,0-.1,0-.1-.2h-.2c-.1,0,0-.1-.1-.1s-.1,0-.2.1H4.3c-.1,0,0-.1-.1-.2,0-.1.1-.1.1-.2s.1-.1.3-.1h.4c.2,0,.1.1.3.1a.521.521,0,0,0,.4-.2v-.2c-.1,0-.1,0-.2-.1s0-.1,0-.2.1-.1.2-.2c.2-.1.1-.2.1-.2.1,0,.1,0,.2-.1.2,0,.3.1.4.1h.4c.3,0,0-.2.2-.1a.366.366,0,0,0,.3-.1c.1-.1.2-.2.2-.307v-.307a.218.218,0,0,0-.2-.2h-.5c-.1,0-.1,0-.1.1-.1,0-.1,0-.2.1s0,.2-.1.2c-.2.1-.2,0-.2,0h-.2c-.1,0-.2,0-.2-.1a.1.1,0,0,0-.1-.1l-.1-.1c-.1,0-.1,0-.2.1s0,.1-.1.2a.319.319,0,0,0-.1.2c-.1,0,0-.1-.1,0-.1,0-.1.1-.2.1s-.1,0-.2.1-.2,0-.3,0-.1-.1-.3-.1c-.1,0,0-.2.1-.307s.2,0,.3-.1c.2-.2.2-.1.2-.2s.1-.1.1-.2-.1-.1-.1-.2,0-.2.1-.2h.4c.1-.1.2-.1.3-.2s0-.2.1-.2a.1.1,0,0,0,.1-.1c0-.1-.2,0-.2-.1-.1-.1,0-.1-.1-.1-.2,0-.1.1-.3,0-.1-.1,0-.1-.1-.1s-.1,0-.3-.1c-.1-.1-.3,0-.3,0,0-.1-.1-.1-.2-.1v-.2c0-.1,0-.2.1-.2s.1-.1.2-.2,0-.2.1-.2.2-.307-.1-.1H4.1c0-.1.2-.1.1-.2s-.2,0-.2-.2a.218.218,0,0,1,.2-.2c.1,0,.2-.1.4,0,.5.2.4,0,.5,0,.2,0,.1.1.4.1.1,0,.3,0,.3-.1s-.1-.1-.2-.1-.2.1-.2,0,.1-.1.1-.2-.2,0-.2-.1.1-.2,0-.307a.138.138,0,0,0-.2,0c-.1,0-.1.1-.3,0-.1-.1.1-.2,0-.307s-.2,0-.2-.1a.218.218,0,0,1,.2-.2,1.3,1.3,0,0,0,.805-.1c.2,0,.2.1.3.1s.2-.1.4-.1c.4,0,.4.1.5.1.5.1.3-.1.4-.1a.35.35,0,0,0,.2-.1c0-.1-.1-.1-.2-.1s-.1-.1-.3-.1c-.3.1-.5,0-.6.1-.2.1-.3.1-.4,0a1.446,1.446,0,0,0-.3-.2c-.2,0-.3,0-.3-.1-.1-.1-.1-.2-.2-.2s-.2.1-.3-.1c-.1-.1.1-.2.2-.2.1-.1,0-.1.1-.2s.3-.2.2-.2c-.1-.2-.1,0-.2,0-.2-.1-.2,0-.3,0s.1-.1.1-.2a.379.379,0,0,1,.1-.307c.2-.2.1-.2,0-.2v-.2a.1.1,0,0,0-.1-.1.358.358,0,0,1,.1-.2c.1,0,0-.1.3-.2s.1-.2.1-.2c0-.1,0-.1.1-.1h.4c.1,0,.1.1.2.1h.2c.1,0,.2.1.3,0,.1,0,.1-.1.1-.2s-.1,0-.1-.1.1,0,.1-.2c0-.1,0-.1.1-.1s.1-.1.2-.1.2.1.3.1.2,0,.2.1a.358.358,0,0,0,.1.2c0,.1,0,.1.1.1l.1.1v.409a.1.1,0,0,0,.1.1s.1,0,.1-.409V11.8c-.1-.1,0-.2-.1-.2-.1-.1-.1,0-.1-.1s0-.2-.1-.2-.1.1-.1.2c0-.409-.1-.409-.2-.409s-.2,0-.2-.1c-.1,0-.1,0-.2-.1a.143.143,0,0,1,0-.2c0-.1.1-.2.1-.307-.1-.1-.1-.1-.2-.1-.2,0-.3,0-.3-.1-.1-.1,0-.1.3-.1a.218.218,0,0,0,.2-.2v-.2c0-.1-.1-.2-.2-.1s-.2,0-.3.1q-.3.153-.3,0c-.1,0-.1-.1-.1-.2s.1-.1.1-.2-.1-.1,0-.2,0-.2.1-.307c.2-.1,0-.2.2-.307.1,0,.1-.2.1-.2,0-.1-.1-.1,0-.2s0-.2.2-.2c.1,0,.2-.1.4-.1.1,0,.2-.1.3-.2.1,0,.1,0,.3-.1.1,0,.2-.1.3-.2s.1-.1.3-.1c.1,0,.1,0,.3.1.1.1.1.2.3.2.1,0,.2,0,.1.1-.2.1-.1.2-.3.2a.1.1,0,0,0-.1.1c0,.1.1.1.2.2.1,0,.1.1.2.2a.51.51,0,0,0,.1.307v.2c0,.1.1.1.1.2a.358.358,0,0,1-.1.2.358.358,0,0,1-.1.2v.2c0,.1-.1.2,0,.2h.2l.1.1s0,.2.1.2a.1.1,0,0,1,.1.1v.307c.1.1.1.1.3.1.1,0,.1-.2.1-.307a.324.324,0,0,1,.3-.307c.1,0-.1-.2.3-.2.3,0,.4,0,.5.1.1.2,0,.2-.1.409,0,.1-.1.1-.1.2,0,.2.2.1.2.2a.1.1,0,0,1-.1.1c0,.1.1.1.1.2,0,0-.2.2-.1.2s.1.1.1.307c0,.1-.1.1-.1.2s0,.2-.1.2c-.1.1-.2.2-.1.2.1.1.2,0,.2.1v.307c.1,0,.2,0,.2.1-.1.2.1.2-.1.307-.2.2-.2.307-.3.307s-.2.1-.3.2c0,.1,0,.2-.1.2s-.1.1-.1.2a.358.358,0,0,1,.1.2v.307c0,.1.1.1.1.2.1,0,0,.1,0,.2a.437.437,0,0,0,.3.1h.4a.1.1,0,0,1,.1.1c.1.1.3,0,.3.1.1.1.2.1.2.2a.1.1,0,0,0,.1.1v.2c.1.1,0,.1,0,.2s-.1.1-.1.2,0,.1-.1.2-.1.1-.2.1-.2-.1-.3-.1c-.2,0-.2.1-.2.1.1-.1-.1-.1-.1,0s0,.1.2,0c.1,0,.1.1,0,.2q0,.153-.3.307c-.1,0-.2-.1-.3-.1s-.2-.1-.2,0c-.1.1-.1.1-.2.1s0,.2,0,.2c-.1,0-.2,0-.2.1s0,.1.1.2a.35.35,0,0,1,.2.1c0,.1-.2.2,0,.2.2.1.1.1.2.2.1,0,.4.1.805.2.3.1.4.2.5.2v.1c0,.1.1.1.3.2a.218.218,0,0,1,.2.2c0,.1-.1.1-.1.307,0,.1-.1.1-.1.307,0,.1,0,.1-.1.2s-.2.2-.2.307.1.1.2.1h.3c.3,0,.3-.1.6-.1a.366.366,0,0,1,.3.1v.2c0,.1-.1.307-.2.307s-.2,0-.2.1a.1.1,0,0,0,.1.1s.1.2,0,.2c-.1.1-.1.2-.2.2,0,.1-.2.2-.2.2,0,.1.1.1.1.2,0,.2-.1.2-.1.307s.1.1,0,.2a.319.319,0,0,0-.1.2c0,.1-.1,0-.2.1l-.1.1c0,.1,0,.2-.1.2a.6.6,0,0,0-.4.1c-.1,0,0,.1,0,.2h-.2a.1.1,0,0,0-.1.1.1.1,0,0,1-.1.1l-.1.1v.2c0,.1-.1.1-.2.1s-.1,0-.1.1v.1c0,.1-.2.1-.2.1a1.476,1.476,0,0,1-.6.1c-.1,0-.4,0-.4-.1,0-.2-.2-.2-.2-.307,0-.2-.2-.2-.2-.307s-.5-.1-.5,0v1.942a5.912,5.912,0,0,0,.1,1.328c0,.409.1.511.2.613h.1s.2,0,.1-.1c.1,0,.1-.1-.1-.1.2,0,.1-.1.1-.1.1,0,.2-.1.1-.2.1,0,.1-.1,0-.1.1,0,.1,0,.1-.1.1.1.2,0,.1-.1.1,0,.1-.1-.1-.1.1,0,.2,0,.1-.1.1.1.2,0,.1-.1.1,0,.1-.2.1-.2,0,.1,0,.307.1.2-.1.1,0,.1.1.1-.2,0-.2.1,0,.2-.1.1.1,0,.2.1-.1,0-.2,0-.1.1-.1.1,0,.1.2.1-.2,0-.2.1-.1.2h.2c.1,0,.1,0,.1-.1,0,0,.1-.1-.1-.1h.2c.2,0,.2-.1-.1-.2.1,0,.4,0,.2-.1.1,0,0-.1-.1-.1.1,0,.1-.1,0-.2.1,0,.2,0,.1-.1.1,0,.1,0,.1-.1.2,0,.1-.1,0-.1,0,0,.2-.1,0-.1h.2c.1,0,.2-.1,0-.1,0,0,.1-.1,0-.1a.2.2,0,0,0,.2-.2c.1,0,.1-.2.1-.307a.358.358,0,0,0,.1.2c-.1.1,0,.1.1.2-.1,0,.1.1.1.1-.1.1-.1.2.2.307-.1,0-.1.1,0,.1h-.2c-.1,0-.1.1.1.1a.35.35,0,0,0,.2.1c-.1.1,0,.1.1.1,0,0-.1.1,0,.1-.1.1-.2.2.2.2-.1.1,0,.1.1.1-.3,0-.2.2,0,.2-.1,0,0,.1.1.2-.1.1.2.1.1,0,.2,0,.2-.1.1-.1.2-.1.1-.307,0-.307.1,0,.2-.1.1-.2.1,0,.3-.1-.1-.1.3,0,.2-.1.1-.2,0,0,.4,0,.2-.1.1,0,0-.1-.1-.1.1,0,.2-.1.1-.2a.1.1,0,0,0,.1-.1s.3,0,.2-.1c.1,0,0-.1,0-.1.1,0,0-.2,0-.2.6,0,.1-.2,0-.307.1,0,.3,0,.2-.1.3.1.1-.2,0-.2l.1-.1c.1.1.2,0,.1-.1.1,0,0-.1,0-.1.1,0,.1-.307.1-.307s.1.307.2.307c-.1,0-.1.2,0,.307,0,.1.1.1.2.1-.2,0-.2.1,0,.2-.1.1,0,.1.1.1-.1,0-.1.1,0,.2-.1,0-.1.1-.1.2-.1,0,0,.1.2.2-.2,0-.3.1,0,.2-.1,0,0,.1.1.1-.2.1-.2.2.1.2-.1,0,0,.1.1.1-.5,0-.2.307,0,.2-.2.1.1.1.2.1-.2,0-.4,0-.3.1-.1,0-.1.2.3.1-.1,0,.1.2.1.2-.5.1-.3.1,0,.2-.1,0-.1.1.1.1-.2,0-.3.1-.2.2s.1.1,1.611.2a5.5,5.5,0,0,1,1.611.2c.3,0,.1-.2,0-.2.5.1.2-.1.2-.2.1,0,.2,0,.1-.1.3,0,.2-.1.1-.2.3-.1.2-.2.1-.2.1,0,.1,0,.1-.1.2.1.2,0,.1-.1.1,0,.2-.1.1-.2a.1.1,0,0,0,.1-.1c.4,0-.1-.2,0-.1.2,0,.3-.2.1-.307.1,0,.2-.1.1-.2.1,0,.1-.1,0-.2.2,0,.2-.2.1-.2.2,0,.2-.409.2-.409s0,.307.2.307c-.1.1.1.2.2.2-.2,0-.2.1-.1.1-.1,0,0,.2.1.2-.2,0,0,.1,0,.2-.1,0-.1.1,0,.1a.143.143,0,0,0,0,.2h.2c.1-.1,0-.2-.1-.2.2,0,.2-.2.1-.2.2,0,.1-.2.1-.2.1,0,.1-.2.1-.307a.379.379,0,0,0,.1.307c-.1.1,0,.2.1.2-.1,0,0,.1.1.2-.2.1.1.2.1.2-.1.1.1.2.1.2a.358.358,0,0,0-.1.2c0,.1.2.1.3,0s0-.2-.1-.2c.2,0,.1-.2,0-.2.2,0,.4-.1.2-.1,0,0,.2-.1,0-.1.2,0,.1-.2.1-.2s.2,0,.1-.1a.35.35,0,0,0,.2-.1.2.2,0,0,0,.2.2c-.1.1,0,.1.1.1-.2.1,0,.1.1.2-.1,0-.1.1,0,.2-.1,0,0,.1.1.1-.1.1-.1.2,0,.2,0-.2.3-.2.3-.2a.1.1,0,0,0,.1-.1.1.1,0,0,1-.1-.1c.2-.1.1-.2,0-.2.3,0,.2-.2.1-.2.1,0,.1,0,.1-.1.1,0,0-.1.1-.2,0,.1,0,.2.1.2v.1c-.2,0,0,.1,0,.1-.1.1,0,.1,0,.1-.1.1,0,.1,0,.1-.1.1,0,.2.1.1.2-.1,0-.2,0-.2.1,0,.2,0,.1-.1.2.1.3-.1.2-.2.1,0,.1-.2,0-.2.2,0,.3,0,.2-.2a.1.1,0,1,1,.2,0c-.1.1,0,.1,0,.1a15143.948,15143.948,0,0,0,.2.2c-.2,0-.2.1-.1.1,0,.1,0,.1.1.1-.1.1.1.1.1.1-.2,0-.2.2,0,.2,0,.1.2,0,.2.1.2.2.2.307.5.307-.1.2.1.1.1.1.2.1.2-.1.1-.1.1,0,.1-.1-.1-.1.1,0,.1,0,.1-.1.1,0,.2,0,.1-.1a.1.1,0,1,1,.2,0c0,.1,0,.1.2.1,0,.1,0,.1.1.1a.1.1,0,0,0,.1.1h0a.379.379,0,0,0-.1.307c0,.1.1.2-.1.307h0a19.289,19.289,0,0,0-3.624.2,10.811,10.811,0,0,1-1.208.1c-1.611.2-1.208.307,1.107.511a5.065,5.065,0,0,0,.906.1,5.345,5.345,0,0,0,.805.1,5.042,5.042,0,0,0,.906.2M6.617,12.618c0,.1.1.1.2.2s0,.1.1.2c.1,0,0,.1.3.1.1,0,.1,0,.2-.1s-.1-.1-.1-.2l-.2-.2a.1.1,0,0,1-.1-.1h-.2c-.1,0-.1-.1-.2,0,0,0,0,.1,0,.1M8.329,8.735v.511h.1v.1h.1a.319.319,0,0,1,.1-.2V8.735c0-.2-.2-.1-.2-.1A.1.1,0,0,0,8.329,8.735Zm-.7.511v.2a.358.358,0,0,0,.1.2h.2v-.2c0-.1-.1-.1-.1-.2s-.1-.1-.1,0C7.624,9.144,7.624,9.144,7.624,9.246Zm.1.92h.1a.1.1,0,0,0,.1-.1v-.2c0-.1-.1,0-.1,0l-.1-.1a.358.358,0,0,0-.1.2S7.624,10.166,7.725,10.166Zm-.3.511a.358.358,0,0,0,.1-.2v-.2c0-.1-.1,0-.1,0v.409ZM8.43,12.107c0,.2.1.307,0,.409v.613a.1.1,0,0,0,.1-.1c0-.1.1-.409.1-.511s.1-.409.1-.511a1.126,1.126,0,0,0-.1-.511c0-.1-.1-.1-.1-.2h-.2a.51.51,0,0,1-.1.307C8.43,11.7,8.53,11.8,8.43,12.107Zm.906,0h0a.319.319,0,0,0,.1-.2.143.143,0,0,0,0-.2.35.35,0,0,1-.2.1.379.379,0,0,0,.1.307Zm.1.511c0,.1.1.1.2.1s.1-.1.2-.1.1-.1.1-.2-.2,0-.2,0l-.1.1C9.537,12.516,9.436,12.516,9.436,12.618Zm0,.511a.1.1,0,0,0,.1.1h.1a.31.31,0,0,1,.2-.1c0-.1,0-.1.1-.1a.1.1,0,0,0-.1-.1h-.1c-.1,0-.1.1-.2.1ZM8.53,14.457v.409c0,.1.1.1.1,0a.1.1,0,0,1,.1-.1c.1,0,0-.2,0-.2,0-.1.1-.307,0-.511v-.2c-.1-.1-.1-.2-.2-.1v.2C8.53,14.049,8.53,14.56,8.53,14.457Zm-1.107-.2c0-.1,0-.1-.1-.2h-.3a.366.366,0,0,0-.3.1c-.1,0,0,.1-.1.1,0,0-.1,0,0,.1s.1,0,.1,0h.4C7.322,14.355,7.423,14.355,7.423,14.253Zm1.711.715h.4a.1.1,0,0,0,0-.2h-.3a.358.358,0,0,0-.1.2Zm-.5.409c-.1,0,0,.1,0,0,.1.1.2.1.2,0l.1-.1v-.1l-.1.1S8.631,15.275,8.631,15.377Zm-2.617-.613a.1.1,0,0,0,.1.1h.3a.1.1,0,0,0,.1-.1c0-.1-.1-.1-.3-.1-.1,0-.2-.1-.3,0C5.913,14.56,6.013,14.662,6.013,14.764ZM9.738,16.91c.1-.1.1-.2,0-.2h-.2c-.1,0-.1-.1-.2-.1h-.5a.1.1,0,0,0-.1.1.143.143,0,0,1,0,.2v.1a.31.31,0,0,1,.2.1.35.35,0,0,0,.2.1h.3a.35.35,0,0,1,.2-.1A.319.319,0,0,1,9.738,16.91Zm-1.208.817c0,.1.1.1.2.307,0,.1.1,0,.2.1.1,0,.2,0,.2.1a.1.1,0,0,1,.1.1h.1l.1.1c.1,0,0,.1.1.1h.2v-.1a.1.1,0,0,0,.1-.1c0-.1-.1-.1-.1-.2v-.2c0-.1-.1,0-.1-.1s0-.1-.1-.2a.763.763,0,0,0-.5-.2c-.2,0-.4-.1-.5,0C8.53,17.523,8.631,17.523,8.53,17.727Zm.1,1.226c0,.1,0,.1.1.1,0,0-.1,0,0,.1,0,.1.1,0,.2.1.1,0,0,0,.1.1,0,.1.1.1.2.1s0,.1.2.1c.1,0,.3,0,.3-.1s0-.1-.1-.2v-.2c-.1-.1-.2-.1-.3-.2-.1,0-.1-.1-.2-.2-.1,0,0-.1-.2-.1-.1,0-.2.1-.3.1Q8.631,18.8,8.631,18.954Zm-1.711.1c0,.1,0,.1.1.2h.1c.1,0,.1,0,.2.1h.1v-.2h-.2c-.1,0-.1-.1-.2-.1a.1.1,0,0,0-.1.1C7.02,18.954,6.919,18.954,6.919,19.056Zm1.711.715v1.022c0,.1,0,.2.1.2h.1v.1a.1.1,0,0,0,.1-.1c0-.1,0-.2.1-.2.2,0,.1-.2.1-.2V20.18h-.1c0-.1.1-.2-.1-.2-.1,0,0,.1-.1.1h-.1c0-.307,0-.307-.1-.307ZM7.221,21.508v.2h.1l.1-.1s.1.1.1-.1a.1.1,0,0,1,.1-.1v-.2a.319.319,0,0,0-.1-.2.138.138,0,0,0-.2,0c0,.1-.1,0-.1.1Zm-1.51-3.066c.1,0,.1,0,.2-.1l.1-.1v-.1c0-.1-.1-.1-.1,0l-.1.1a.35.35,0,0,1-.2.1.1.1,0,0,0,0,.2Z" transform="translate(0.027 0.155)"/><path class="a" d="M9.2,21.715h.5c.2,0,.2-.1.2-.1a.366.366,0,0,0,.3-.1v-.1a.1.1,0,0,0-.1-.1c-.1,0,0,0,0-.1a.1.1,0,0,0,.1-.1V21c-.1,0-.1,0-.7.2s-.5.307-.5.307C9.2,21.613,9.1,21.613,9.2,21.715Z" transform="translate(0.06 0.459)"/><path class="a" d="M23.931,27.926a5.041,5.041,0,0,1-.906-.2,4.5,4.5,0,0,0-.805-.1,5.065,5.065,0,0,1-.906-.1c-2.215-.307-2.718-.307-1.107-.511a10.811,10.811,0,0,0,1.208-.1,35.011,35.011,0,0,1,3.624-.2h0c-.2.2-.7.817-.805.92l-.3.307Z" transform="translate(0.129 0.584)"/><path class="a" d="M12.913,29.5l.6-.2a1.69,1.69,0,0,1,.7.1h.2a.6.6,0,0,1,.4.1.759.759,0,0,1,.4.2.366.366,0,0,1,.3.1c.1,0,.1.1.2.1a1.686,1.686,0,0,1,.5.2c.2,0,.3.1.5.1s.3.1.4.1c.1.1.4.2.5.307a1.172,1.172,0,0,1,.3.613v.511c0,.2-.1.307-.1.409s.1.1,0,.2c0,.1-.1.1-.1.2l-.1.1h0v-.1l-.1-.1a.319.319,0,0,1,.1-.2.1.1,0,0,1,.1-.1l.1-.1v-.613s-.1-.1-.1,0v.307c0,.2,0,.1-.1.307s-.1.307-.2.409a.782.782,0,0,0,.1.409.8.8,0,0,1,.1.307.1.1,0,0,0,.1.1s.1,0,0,.1a1.088,1.088,0,0,1-.2.511v.2h0v.409h-.4c0-.1,0-.2.1-.2l.1-.1V33.8l.1-.2a.51.51,0,0,0-.1-.307l-.3-.307c-.1-.1-.2-.1-.3-.2-.1,0-.2,0-.2.1-.1,0-.2.1-.3.1a.366.366,0,0,1-.3.1h-.1c0-.1,0-.1-.1-.1h-.1c-.1,0-.1.1-.2.2,0,.1-.1.2-.1.307s-.1.1-.1.2,0,.1-.2.2l-.2.2-.1.1v.307h-.3c-.1,0-.1,0,0-.1,0-.1.1-.1.1-.2v-.1a2.346,2.346,0,0,1-.1-.409.1.1,0,0,0-.1-.1.358.358,0,0,1-.1-.2.35.35,0,0,0-.2-.1c-.1,0-.4-.1-.5-.1s-.3-.2-.4-.2l-.2-.1h-.1c-.1.1-.1.1-.2.1l-.1.1-.1.2c-.1.2-.2.2-.2.2s-.1,0-.2-.2a1.265,1.265,0,0,0-.2-.307s-.1-.1-.1,0h-.2a.1.1,0,0,1-.1-.1c0-.1-.1-.2-.1-.307s-.1-.2-.1-.307a.358.358,0,0,1-.1-.2.782.782,0,0,0-.1-.409c-.1-.1-.1-.409-.1-.409v-.511c0-.1.1-.2.2-.307s.1-.2.2-.2.2-.1.3-.1.1-.1.3,0c.2,0,.3.1.4,0a.366.366,0,0,0,.3-.1c.1-.1.2-.2.2-.307A.358.358,0,0,1,12.913,29.5Zm-.906,1.124v-.2c0-.1,0-.2.2,0a1.031,1.031,0,0,1,.1.409s0,.1-.2.307a.2.2,0,0,0-.2-.2A.51.51,0,0,1,12.007,30.628Zm-.4.613a.1.1,0,0,1,.1.1c.1,0,0,.1,0,.1h-.2c-.1,0,0-.1,0-.1l.1-.1Z" transform="translate(0.073 0.64)"/><g transform="translate(12.181 8.992)"><path class="e" d="M12.2,8.8h.7l.7,1.226h0V8.8h.4v1.839h-.7l-.7-1.328h0v1.328h-.5V8.8Z" transform="translate(-12.1 -8.8)"/><path class="e" d="M15.105,8.8h.6l.805,1.839h-.6l-.1-.409H15l-.2.409h-.5Zm.3.409h0l-.3.715h.5Z" transform="translate(-12.085 -8.8)"/><path class="e" d="M17,9.209h-.5V8.8h1.51v.409h-.5v1.533H17Z" transform="translate(-12.07 -8.8)"/><path class="e" d="M18.4,8.8h.5v1.839h-.5Z" transform="translate(-12.058 -8.8)"/><path class="e" d="M20.307,8.8a.935.935,0,0,1,1.007.92c0,.613-.3.92-1.007.92a.923.923,0,1,1,0-1.839Zm0,1.533c.3,0,.4-.307.4-.613s-.1-.613-.4-.613-.4.307-.4.613S20,10.333,20.307,10.333Z" transform="translate(-12.052 -8.8)"/><path class="e" d="M21.7,8.8h.7l.7,1.226h0V8.8h.5v1.839h-.7l-.7-1.328h0v1.328h-.5Z" transform="translate(-12.036 -8.8)"/><path class="e" d="M24.7,8.8h.6l.805,1.839h-.6l-.1-.409h-.7l-.2.409H24Zm.3.409h0l-.3.715h.5Z" transform="translate(-12.02 -8.8)"/><path class="e" d="M26.4,8.8h.5v1.533h.805v.409H26.4Z" transform="translate(-12.004 -8.8)"/><path class="e" d="M16,11.7h.6q.906,0,.906.613c0,.409-.3.613-.805.613h-.2v.613H16Zm.5.92h.1a.269.269,0,0,0,.3-.307c0-.2-.1-.2-.3-.2h-.1Z" transform="translate(-12.074 -8.737)"/><path class="e" d="M18.3,11.7h.6l.805,1.839h-.6l-.1-.409h-.7l-.2.409h-.5Zm.3.409h0l-.3.715h.5Z" transform="translate(-12.063 -8.737)"/><path class="e" d="M20,11.7h1.007c.4,0,.6.1.6.511a.52.52,0,0,1-.4.511h0c.2,0,.2.2.3.409l.2.511h-.6l-.1-.409c-.1-.307-.2-.409-.4-.409h-.1v.715H20Zm.5.817h.1c.2,0,.4,0,.4-.2s-.2-.2-.4-.2h-.1Z" transform="translate(-12.047 -8.737)"/><path class="e" d="M22.1,11.7h.5v.715h0l.6-.715h.6l-.7.92.805,1.022h-.7l-.6-.817h0v.817h-.5V11.7Z" transform="translate(-12.033 -8.737)"/><path class="e" d="M13.7,16.033a.745.745,0,0,0,.5.1c.2,0,.3,0,.3-.2,0-.307-.906-.1-.906-.817,0-.409.5-.613.906-.613a.745.745,0,0,1,.5.1v.409a.6.6,0,0,0-.4-.1c-.1,0-.4,0-.4.2,0,.307.906.1.906.817,0,.511-.4.613-.906.613a1.26,1.26,0,0,1-.6-.1Z" transform="translate(-12.09 -8.675)"/><path class="e" d="M15.5,14.6h1.409v.307H16v.409h.805v.307H16v.409h.906v.307H15.5Z" transform="translate(-12.077 -8.673)"/><path class="e" d="M17.4,14.6h.906c.3,0,.6.1.6.511a.52.52,0,0,1-.4.511h0c.2,0,.2.2.3.409l.2.511h-.5l-.1-.307c-.1-.307-.2-.409-.4-.409h-.1v.715h-.5Zm.5.817H18c.2,0,.4,0,.4-.2s-.2-.2-.4-.2h-.1Z" transform="translate(-12.064 -8.673)"/><path class="e" d="M19.3,14.6h.6l.4,1.431h0l.4-1.431h.5l-.7,1.839h-.6Z" transform="translate(-12.052 -8.673)"/><path class="e" d="M21.6,14.6h.5v1.839h-.5Z" transform="translate(-12.036 -8.673)"/><path class="e" d="M24.311,16.439a3.512,3.512,0,0,1-.6.1c-.5,0-1.107-.2-1.107-.92A1.041,1.041,0,0,1,23.707,14.6a1.26,1.26,0,0,1,.6.1v.409a.9.9,0,0,0-.5-.1.585.585,0,0,0-.6.613c0,.409.3.613.7.613a.9.9,0,0,0,.5-.1Z" transform="translate(-12.03 -8.673)"/><path class="e" d="M24.7,14.6h1.409v.307H25.2v.409h.805v.307H25.2v.409h.906v.307H24.7Z" transform="translate(-12.015 -8.673)"/></g><path class="b" d="M17.617.2a1.874,1.874,0,0,1-.805.2h-.7l-.3-.1h-.3L14.8.2a9.254,9.254,0,0,0-1.409.2h-.2l-.3.1c-.1,0-.2.1-.3.1s-.3.1-.805.2l-.3.1h-.5l-.4.1-.4.1a2.374,2.374,0,0,0-.906.2,1.845,1.845,0,0,0-.7.2c-.2.1-.3.1-.4.2l-.1.1c-.4.307-.5.307-.6.307h-.2a.521.521,0,0,1-.4.2.771.771,0,0,0-.3.1,1,1,0,0,0-.3.1V3.27a1.04,1.04,0,0,1-.1.307.35.35,0,0,0,.2.1h0a2.409,2.409,0,0,1,.5,1.022v.2c0,.307,0,.613-.1.715h0v.1a4.3,4.3,0,0,1-.5.1,3.834,3.834,0,0,1-1.107-.2,1.371,1.371,0,0,1-.6-.2c-.1-.1-.3-.2-.4-.307h-.1c-.1,0-.1-.1-.2-.1a.35.35,0,0,1-.2-.1.991.991,0,0,0-.4.1,1.936,1.936,0,0,1-.805.1h-.2a1.473,1.473,0,0,1-.2.307,1.772,1.772,0,0,0-.5.409l-.3.1-.4.2c-.1.1-.2.1-.3.2a.492.492,0,0,1-.3.1v.511c0,.1-.1.2-.1.307v.511a1.536,1.536,0,0,1-.1.715V8.89H0A.732.732,0,0,0,.4,9.5a.717.717,0,0,1,.2.409v.1a4.294,4.294,0,0,1-.1,1.022A5.088,5.088,0,0,0,.4,12.16v.1a1.742,1.742,0,0,0,.2.511v.1a2.471,2.471,0,0,1,.2.92h0v.715h0c0,.1.2.409.2.511.1.1.2.511.3.613v.1c0,.1.1.2.1.307v.511l-.1,1.124v1.328l.2.1.1.1a.1.1,0,0,0,.1.1l.1.2c-.1.1.2.613.2.613a1.742,1.742,0,0,0,.2.511l.1.715.2,1.124c0,.1.1.613.1.817v.613l.1.307v.1a3.078,3.078,0,0,1,.4.817v.307l.1.2v.1a2.846,2.846,0,0,0,.5.92c.1.2.5.92.6,1.226h0a.41.41,0,0,0,.2.409h0v.1c.1.1.2.2.3.2h.1a1.217,1.217,0,0,0,.4.409l.2.2h0c0,.1.1.1.1.2v.409l.1.1.1.1a2.788,2.788,0,0,1,.4.511c.2.2.2.409.3.613l.1.2a1.088,1.088,0,0,1,.2.511h0v.1l.2.1c.1.1.3.307.4.307a.756.756,0,0,1,.3.307.732.732,0,0,1,.3.613v.1c.1.1,0,.307,0,.307a.492.492,0,0,1,.3.1l.1.2c.1.1.1.2.2.2l.1.511c0,.1.1.2.3.511l.2.307c.3.2.4.2.5.307l.2.1c.2.1.2.2.2.2v.2c.1.307,0,.409,0,.409s.2,0,.2.1l.1.1.1.1.3.409.1.1a1.392,1.392,0,0,0,.4.307,1.485,1.485,0,0,1,.6.511l.1.1a1.392,1.392,0,0,0,.4.307l.3.2h.1a.917.917,0,0,1,.5.307l.2.1.2.1a2.012,2.012,0,0,0,.805.409h.3c.1,0,.2.1.4,0,.805-.2,1.007-.307,1.208-.511l.3-.409.2-.2.2-.1.4-.409h0a4.475,4.475,0,0,1,.6-.511l.2-.1h0l.2-.1c.1-.1.3-.2.4-.307l.1-.1c.2-.409.4-.613.4-.817v-.1l.1-.2v-.1c.1,0,.2-.1.3-.2l.2-.2a.31.31,0,0,1,.2-.1v-.307a1.882,1.882,0,0,1,.4-.307l.2-.1a3.875,3.875,0,0,0,.906-.92l.2-.2a.787.787,0,0,0,.2-.511.379.379,0,0,0-.1-.307l.1-.1.4-.409.4-.409.3-.409a.31.31,0,0,1,.2-.1v-.613c0-.1.2-.2.2-.2l.1-.1a.787.787,0,0,0,.2-.511,3.723,3.723,0,0,1,.2-1.124l.1-.1.1-.2.1-.1.1-.1c.2-.2.5-.613.7-.817h0l.2-.2-.1-.1v-.2l.1-.2c.1-.1.1-.2.2-.307l.2-.307c.1-.1.1-.307.3-.409h.1v-.613a3.183,3.183,0,0,0,.4-.613,1.088,1.088,0,0,0,.2-.511v-.1a.379.379,0,0,1,.1-.307v-.1l.1-.2h0v-.1a.358.358,0,0,1,.1-.2l.1-.1a1.409,1.409,0,0,1,.3-.409,1.653,1.653,0,0,0,.4-.715v-.1h0c0-.511.1-.613.1-.613v-.2a.666.666,0,0,1,.2-.511,4.3,4.3,0,0,0,.2-.613.358.358,0,0,1,.1-.2l-.1-.2a2.645,2.645,0,0,1-.2-.511c0-.2-.1-.409-.1-.613a.872.872,0,0,1,.2-.613h0a6.059,6.059,0,0,1,.4-.613.35.35,0,0,0,.2-.1.51.51,0,0,1,.1-.307v-.613l.1-.2a1.54,1.54,0,0,0,.1-.613v-.817a.933.933,0,0,0,.1-.511h0l.1-.1a4.484,4.484,0,0,0,.1-.511h0v-.613a2.647,2.647,0,0,0,0-.92l-.1-.307h0v-.409a1.366,1.366,0,0,1,.3-.511l.1-.1V7.255l-.4-.2c-.1.1-.4-.1-.6-.2-.2-.2-.3-.2-.3-.307-.1-.1-.6-.1-.805-.1s-.4.1-.7.1h-.3a.6.6,0,0,1-.4-.1h-.1a1.08,1.08,0,0,0-.5-.1h-.906a1.329,1.329,0,0,0-.5-.1.31.31,0,0,1-.2-.1c.1,0-.1-.2-.1-.2h-.4l-.5-.1a1.586,1.586,0,0,1-.3-.715V4.9a1.069,1.069,0,0,1,.1-.409l.2-.1.6-.307.3-.1-.1-.2-.1-.307-.2-.409c0-.1-.1-.2-.2-.307a2.763,2.763,0,0,0-.5-.409c-.2-.2-.5-.613-.6-.715h0v-.2s-.2,0-.2-.1h-.2a3.418,3.418,0,0,1-.906-.1A4.036,4.036,0,0,1,20.134.92l-.2-.1L19.128.511l-.2-.1-.5-.1c-.1,0-.2-.1-.3-.1.1-.1-.1-.2-.1-.2Zm-.7.613a4.633,4.633,0,0,0,.906-.307.1.1,0,0,0,.1-.1h0a.521.521,0,0,0,.4.2l.5.2.2.2.805.307.1.1a5.281,5.281,0,0,0,1.107.307,4.556,4.556,0,0,0,1.007.1.1.1,0,0,0,.1.1,2.36,2.36,0,0,0,.5.715,7.439,7.439,0,0,0,.6.511h0c0,.1.1.409.2.409-.2.1-.3.2-.5.2l-.2.1a.917.917,0,0,0-.4.817v.307a1.283,1.283,0,0,0,.5.92,2.18,2.18,0,0,0,.906.307h0l.1.1.2.1h.1a.843.843,0,0,0,.6.2h1.007a.991.991,0,0,1,.4.1h.1c.1,0,.4.1.6.1l.3-.1c.2,0,.5-.1.6-.1a3.512,3.512,0,0,1,.6.1l.2.2a3.848,3.848,0,0,1,.6.511,1,1,0,0,0,.3.1V8.992l.1.307v.613h0c-.3.511-.4.613-.4.715h0v.409h0l.1.2.1.2v1.839h0a.622.622,0,0,1-.1.409v.1l-.1.1a.8.8,0,0,1-.1.307.451.451,0,0,0-.1.307v.715a1.126,1.126,0,0,1-.1.511v.1c-.1.1-.1.2-.1.409v.511c-.3.1-.4.409-.7.715h0a1.948,1.948,0,0,0-.2.817,2.023,2.023,0,0,0,.1.715h0a5.022,5.022,0,0,0,.3.715,1.088,1.088,0,0,1-.2.511,1.742,1.742,0,0,0-.2.511v.1h0c-.1.1-.1.307-.2.817v.1c-.1.307-.1.409-.2.511-.2.1-.3.307-.5.511l-.1.1c-.1.1-.1.2-.2.409v.2h0l-.1.1a1.126,1.126,0,0,0-.1.511v.1c0,.1,0,.2-.1.2a4.325,4.325,0,0,0-.5.715.8.8,0,0,0-.1.307h0v.2l-.4.409-.1.2a1.04,1.04,0,0,0-.1.307.782.782,0,0,0-.1.409v.1h0a7.4,7.4,0,0,0-.805.92h-.1l-.1.1-.2.2-.1.2c0,.2-.2,1.022-.2,1.226,0,.1,0,.2-.1.2l-.1.1c-.2.2-.4.307-.4.511h0v.511l-.3.307-.3.409-.4.511h0l-.2.307.1.1v.2a.1.1,0,0,1-.1.1l-.2.2-.805.817-.2.1c-.3.511-.4.613-.5.613a.622.622,0,0,0-.1.409h0l-.2.2-.2.1h0c-.2.1-.2.2-.3.307h0v.1l-.1.307a5.886,5.886,0,0,1-.4.715l-.1.1c0,.1-.1.1-.2.2l-.2.1-.2.1a2.72,2.72,0,0,0-.7.613h0c-.2.1-.3.307-.5.409l-.1.1-.2.307-.3.307a2.5,2.5,0,0,1-1.007.409H15c-.1,0-.2-.1-.4-.1a1.1,1.1,0,0,1-.6-.307l-.2-.1-.2-.1a1.547,1.547,0,0,0-.6-.307h0l-.3-.1-.3-.307-.1-.1a3.06,3.06,0,0,0-.7-.511,1.446,1.446,0,0,0-.3-.2l-.1-.1-.2-.511s-.2-.1-.2-.2v-.511c0-.2-.1-.307-.4-.511h0l-.3-.1a.31.31,0,0,0-.2-.1l-.3-.409c-.1-.1-.2-.2-.2-.307a2.347,2.347,0,0,0-.1-.409.937.937,0,0,0-.3-.511h0l-.1-.1c0-.1-.1-.1-.2-.1h0v-.1a1.554,1.554,0,0,0-.4-.92c-.1-.1-.4-.409-.5-.409s-.2-.1-.3-.2l-.1-.1a1.493,1.493,0,0,0-.2-.715l-.1-.2a5.886,5.886,0,0,0-.4-.715,2.284,2.284,0,0,0-.5-.511h-.1v-.307c0-.2-.1-.307-.2-.511h0l-.2-.2-.3-.307c-.1-.1-.2-.2-.3-.2l-.1-.1-.1-.1V27.59a3.545,3.545,0,0,0-.7-1.226,6.062,6.062,0,0,1-.4-.817l-.1-.2-.1-.1v-.307a4.654,4.654,0,0,0-.2-.817v-.1l-.1-.2V23.2c0-.2-.1-.715-.1-.92l-.2-1.124-.1-.715c0-.2-.2-.511-.2-.613a7.965,7.965,0,0,0-.4-.715h-.2c-.1-.1-.1-.2-.2-.307h0V17.678l.1-1.124.1-.511h0a1.031,1.031,0,0,0-.1-.409v-.1a2.2,2.2,0,0,0-.4-.715.379.379,0,0,1-.1-.307v-.1a4.484,4.484,0,0,0,.1-.511v-.1a3,3,0,0,0-.3-1.124v-.1c0-.1-.2-.307-.2-.307v-.1a5.583,5.583,0,0,1,.1-1.124c0-.1.1-.715.1-1.124v-.2c-.2-.2-.4-.511-.5-.613a1.472,1.472,0,0,1-.2-.307V8.481c0-.2.1-.409.1-.715v-.92h0a1.686,1.686,0,0,0,.5-.2l.3-.1.3-.2a1.035,1.035,0,0,0,.6-.511l.1-.1a1.874,1.874,0,0,0,.805-.2c.1,0,.2-.1.3-.1.1.1.2.1.3.2h.1a.774.774,0,0,1,.3.2,7.188,7.188,0,0,0,.805.307,4.254,4.254,0,0,0,1.208.2c.2,0,.7-.1.805-.307a.622.622,0,0,0,.1-.409h0a5.843,5.843,0,0,0,.1-.715V4.7a2.693,2.693,0,0,0-.6-1.328h0V2.963h.2a2.022,2.022,0,0,0,.5-.1h.2a2.85,2.85,0,0,0,.805-.409l.1-.1c.1-.307.1-.307.2-.409a1.845,1.845,0,0,1,.7-.2,4.264,4.264,0,0,0,1.007-.307l.3-.1a4.3,4.3,0,0,1,.5-.1h.4l.3-.1a2.532,2.532,0,0,1,.7-.2.9.9,0,0,0,.5-.1l.2-.1h.2A2.857,2.857,0,0,1,14.8.613l.6.1h.5A1.633,1.633,0,0,0,16.913.817ZM6.745,2.657Zm16.611.511ZM19.933,35.152ZM11.577,1.226Zm12.383,4.6ZM29.6,9.3Zm-.5,5.518Zm-.805,6.131ZM2.718,24.014Zm24.362,0Zm-4.128,6.642Zm-3.221,5.416ZM16.51,39.546Z"/></svg>